/* XPM */
static char * dialog_dialog_xpm[] = {
"20 20 8 1",
" 	c None",
".	c #000000",
"+	c #8694EF",
"@	c #FFFFFF",
"#	c #020000",
"$	c #F7F9F7",
"%	c #E20B3A",
"&	c #6A726A",
"..............      ",
".++++++++++++.      ",
".++++++++++++.      ",
"..............      ",
".@@@@@@@@@@@@.      ",
".@@@@@@@@@@@@.      ",
".@@@@@@@@@@@@.      ",
".@@@@@@.########....",
".@@@@@@.+++++++++++.",
".@@@$@@.+++++++++++.",
".@@@$@@.####........",
".@@@%@@#@%@@@@@@@@@.",
".@@%%&@#@%%@@@@@@@@.",
"..%%%%%%%%%%@@@@@@@.",
" %%%%%%%%%%%%@@@@@@.",
"  %%%%%%%%%%&&@@@@@.",
"   %%&&&&%%&&@@@@@@.",
"    %& #@%&&@@@@@@@.",
"     & .@@&@@@@@@@@.",
"       ............."};
