/* XPM */
static char * dialog_disk_xpm[] = {
"20 20 18 1",
" 	c None",
".	c #000000",
"+	c #8694EF",
"@	c #FFFFFF",
"#	c #F9F9F9",
"$	c #7A7B7A",
"%	c #040604",
"&	c #000200",
"*	c #0B0D0B",
"=	c #595A59",
"-	c #D3AF43",
";	c #000100",
">	c #F7F9F7",
",	c #897037",
"'	c #E20B3A",
")	c #020000",
"!	c #AA8A38",
"~	c #6A726A",
"..............      ",
".++++++++++++.      ",
".++++++++++++.      ",
"..............      ",
".@@@@@@@@@@@@.      ",
".@@@@@@######.      ",
".@@@@@@##$%&&&&&&&  ",
".@@@@@@#*=-------=; ",
".@@@@@@#&---------& ",
".@@@>@@#&=-------=& ",
".@@@>@@#&,%&&&&&&,& ",
".@@@'@@)',!!---!!,& ",
".@@''~@)''!!---!!,& ",
"..'''''''''!---!!,& ",
" '''''''''''---!!,& ",
"  '''''''''!---!!,& ",
"   ''~  ''!!---!!,& ",
"    '~  ',!!---!!,& ",
"     ~   &!!---!!&  ",
"          &&&&&&&   "};
