/* XPM */
static char * multitabs_glyph2_xpm[] = {
"20 20 153 2",
"  	c None",
". 	c #5D5D5D",
"+ 	c #FFFFFF",
"@ 	c #C7C7C7",
"# 	c #B795CE",
"$ 	c #B38FC9",
"% 	c #AF89C5",
"& 	c #AB84C1",
"* 	c #A67EBD",
"= 	c #A278B9",
"- 	c #9E73B4",
"; 	c #9A6DB0",
"> 	c #9567AC",
", 	c #9162A8",
"' 	c #8D5CA4",
") 	c #88579F",
"! 	c #8F56B5",
"~ 	c #8C52B0",
"{ 	c #894EAC",
"] 	c #854AA8",
"^ 	c #8246A4",
"/ 	c #7F439F",
"( 	c #7B3F9B",
"_ 	c #783B97",
": 	c #743793",
"< 	c #71338F",
"[ 	c #6E2F8A",
"} 	c #CECECE",
"| 	c #265C28",
"1 	c #1E5421",
"2 	c #154400",
"3 	c #FFFFF8",
"4 	c #FFFFF6",
"5 	c #FFFFF4",
"6 	c #FFFFF1",
"7 	c #CECEB2",
"8 	c #295F2C",
"9 	c #B3D8B2",
"0 	c #208A17",
"a 	c #2FA522",
"b 	c #113800",
"c 	c #0C2600",
"d 	c #FFFFEE",
"e 	c #FFFFEB",
"f 	c #CECEAF",
"g 	c #215824",
"h 	c #DBECDA",
"i 	c #FFFFF3",
"j 	c #000000",
"k 	c #040D00",
"l 	c #FFFFE5",
"m 	c #CECEAC",
"n 	c #FFFFFD",
"o 	c #FFFFFB",
"p 	c #235326",
"q 	c #A9D7AD",
"r 	c #FFFFEF",
"s 	c #FFFFED",
"t 	c #FFFFE8",
"u 	c #FFFFE6",
"v 	c #FFFFE4",
"w 	c #CECEAA",
"x 	c #FFFFF9",
"y 	c #FFFFF7",
"z 	c #FFFFF5",
"A 	c #1C4E1F",
"B 	c #6EBC66",
"C 	c #3FBE31",
"D 	c #FFFFE9",
"E 	c #FFFFE7",
"F 	c #FFFFE2",
"G 	c #FFFFE0",
"H 	c #FFFFDE",
"I 	c #FFFFDB",
"J 	c #FFFFD9",
"K 	c #CECEA6",
"L 	c #FFFFFA",
"M 	c #1B521E",
"N 	c #1C501B",
"O 	c #56A64F",
"P 	c #FFFFDC",
"Q 	c #FFFFDA",
"R 	c #FFFFD7",
"S 	c #FFFFD5",
"T 	c #FFFFD3",
"U 	c #CECEA4",
"V 	c #CECECC",
"W 	c #1B571A",
"X 	c #B5D7B3",
"Y 	c #289B19",
"Z 	c #249215",
"` 	c #2F783F",
" .	c #46CF36",
"..	c #153C17",
"+.	c #FFFFD8",
"@.	c #FFFFD6",
"#.	c #161616",
"$.	c #FFFFD1",
"%.	c #FFFFCF",
"&.	c #FFFFCD",
"*.	c #CECEA2",
"=.	c #CECECA",
"-.	c #244926",
";.	c #C6E0C4",
">.	c #2F7A41",
",.	c #44CD36",
"'.	c #FFFFD4",
").	c #FFFFD2",
"!.	c #232323",
"~.	c #B8B8B8",
"{.	c #FFFFC9",
"].	c #FFFFC7",
"^.	c #CECE9E",
"/.	c #CECEC7",
"(.	c #CECEC4",
"_.	c #CECEBE",
":.	c #CDCDBA",
"<.	c #CECEB9",
"[.	c #124515",
"}.	c #44CB35",
"|.	c #CECEAE",
"1.	c #CECEAB",
"2.	c #050505",
"3.	c #BABABA",
"4.	c #535353",
"5.	c #525252",
"6.	c #CECE9C",
"7.	c #DADADA",
"8.	c #A9A9A9",
"9.	c #585858",
"0.	c #2D2D2D",
"a.	c #363636",
"b.	c #111111",
"c.	c #040404",
"d.	c #7B7B7B",
"e.	c #313131",
"f.	c #333333",
"g.	c #9F9F9F",
"h.	c #373737",
"i.	c #818181",
"j.	c #4C4C4C",
"k.	c #191919",
"l.	c #010101",
"m.	c #B2B2B2",
"n.	c #454545",
"o.	c #121212",
"p.	c #1A1A1A",
"q.	c #020202",
"r.	c #929292",
"s.	c #3D3D3D",
"t.	c #0D0D0D",
"u.	c #262626",
"v.	c #1E1E1E",
". . . . . . . . . . . . . . . . . . . . ",
". + @ # # # $ % & * = - ; > , ' ) + @ . ",
". @ @ ! ! ! ~ { ] ^ / ( _ : < [ [ @ @ . ",
". . . . . . . . . . . . . . . . . . . . ",
". } + + + + + + | 1 1 1 1 2 3 4 5 6 7 . ",
". } + + + + + 8 9 0 a 2 b c 2 2 d e f . ",
". } + + + + g h 0 a 2 i 6 d j k 2 l m . ",
". } + + n o p q a 2 r s e t u v j 2 w . ",
". } + x y z A B C 2 D E v F G H I J K . ",
". } L M N M A O C 2 2 2 2 P Q R S T U . ",
". V 5 s W X B Y Z `  ...+.@.#.$.%.&.*.. ",
". =.d E v -.;.Z >.,...'.).!.~.j {.].^.. ",
". /.(._.:.<.[.X }...|.1.2.3.4.5.j ^.6.. ",
". . . . . 7.7.....7.7.j 8.9.0.a.5.j     ",
"                    b.b.c.d.e.d.b.b.b.  ",
"                        f.g.h.j         ",
"        j j             j i.j.k.        ",
"          l.l.j       j m.9.n.j         ",
"            o.p.j q.4.r.. s.t.          ",
"                b.u.j j v.j             "};
