/* XPM */
static char * multitabs_glyph1_xpm[] = {
"19 20 94 2",
"  	c None",
". 	c #5D5D5D",
"+ 	c #FFFFFF",
"@ 	c #C7C7C7",
"# 	c #B795CE",
"$ 	c #B38FC9",
"% 	c #AF89C5",
"& 	c #AB84C1",
"* 	c #A67EBD",
"= 	c #A278B9",
"- 	c #9E73B4",
"; 	c #9A6DB0",
"> 	c #9567AC",
", 	c #9162A8",
"' 	c #8D5CA4",
") 	c #88579F",
"! 	c #8F56B5",
"~ 	c #8C52B0",
"{ 	c #894EAC",
"] 	c #854AA8",
"^ 	c #8246A4",
"/ 	c #7F439F",
"( 	c #7B3F9B",
"_ 	c #783B97",
": 	c #743793",
"< 	c #71338F",
"[ 	c #6E2F8A",
"} 	c #CECECE",
"| 	c #FFFFFE",
"1 	c #CECEB7",
"2 	c #FFFFFC",
"3 	c #FFFFFA",
"4 	c #FFFFF8",
"5 	c #CECEB5",
"6 	c #FFFFF5",
"7 	c #FFFFF3",
"8 	c #FFFFF1",
"9 	c #FFFFEE",
"0 	c #FFFFEC",
"a 	c #FFFFEA",
"b 	c #FFFFE7",
"c 	c #FFFFE5",
"d 	c #CECEAC",
"e 	c #FFFFF6",
"f 	c #FFFFF4",
"g 	c #FFFFEF",
"h 	c #FFFFED",
"i 	c #FFFFEB",
"j 	c #FFFFE8",
"k 	c #FFFFE6",
"l 	c #FFFFE4",
"m 	c #FFFFE1",
"n 	c #FFFFDF",
"o 	c #CECEAA",
"p 	c #FFFFFB",
"q 	c #FFFFF2",
"r 	c #FFFFF0",
"s 	c #FFFFE9",
"t 	c #FFFFE2",
"u 	c #FFFFE0",
"v 	c #FFFFDE",
"w 	c #FFFFDB",
"x 	c #FFFFD9",
"y 	c #CECEA6",
"z 	c #0D4E79",
"A 	c #000000",
"B 	c #FFFFDC",
"C 	c #FFFFDA",
"D 	c #FFFFD7",
"E 	c #FFFFD5",
"F 	c #FFFFD3",
"G 	c #CECEA4",
"H 	c #CECECC",
"I 	c #FFFFD6",
"J 	c #FFFFD4",
"K 	c #FFFFD1",
"L 	c #FFFFCF",
"M 	c #FFFFCD",
"N 	c #CECEA2",
"O 	c #CECECA",
"P 	c #FFFFD0",
"Q 	c #FFFFCB",
"R 	c #FFFFC9",
"S 	c #FFFFC7",
"T 	c #CECE9E",
"U 	c #CECEC7",
"V 	c #CECEC4",
"W 	c #CECEC2",
"X 	c #CECEC0",
"Y 	c #CECEB3",
"Z 	c #CECEA7",
"` 	c #CECEA5",
" .	c #CECEA0",
"..	c #CECE9C",
". . . . . . . . . . . . . . . . . . . ",
". + @ # # $ % & * = - ; > , ' ) + @ . ",
". @ @ ! ! ~ { ] ^ / ( _ : < [ [ @ @ . ",
". . . . . . . . . . . . . . . . . . . ",
". } + + + + + + + + + + + + + + | 1 . ",
". } + + + + + + + + + + + + 2 3 4 5 . ",
". } + + + + 2 3 4 6 7 8 9 0 a b c d . ",
". } + + + 4 e f 8 g h i j k l m n o . ",
". } + | p q r 9 i s b l t u v w x y . ",
". } 3 4 6 0 a b z z z A B C D E F G . ",
". H f 8 g k l m z z z A I J K L M N . ",
". O 9 i s u v w z z z A P M Q R S T . ",
". U V W X 1 5 Y z z z A Z ` N  .T ... ",
". . . . . . . . z z z A . . . . . . . ",
"                z z z A               ",
". . .     z z z z z z z z z A         ",
"            z z z z z z z A           ",
"              z z z z z A             ",
"                z z z A               ",
"                  z A                 "};
