/* XPM */
static char * multitabs_glyph3_xpm[] = {
"20 20 163 2",
"  	c None",
". 	c #5D5D5D",
"+ 	c #FFFFFF",
"@ 	c #C7C7C7",
"# 	c #B795CE",
"$ 	c #B38FC9",
"% 	c #AF89C5",
"& 	c #AB84C1",
"* 	c #A67EBD",
"= 	c #A278B9",
"- 	c #9E73B4",
"; 	c #9A6DB0",
"> 	c #9567AC",
", 	c #9162A8",
"' 	c #8D5CA4",
") 	c #88579F",
"! 	c #8F56B5",
"~ 	c #8C52B0",
"{ 	c #894EAC",
"] 	c #854AA8",
"^ 	c #8246A4",
"/ 	c #7F439F",
"( 	c #7B3F9B",
"_ 	c #783B97",
": 	c #743793",
"< 	c #71338F",
"[ 	c #6E2F8A",
"} 	c #CECECE",
"| 	c #000000",
"1 	c #FFFFFC",
"2 	c #FFFFF9",
"3 	c #FFFFF8",
"4 	c #FFFFF6",
"5 	c #DADAC5",
"6 	c #FFFFF3",
"7 	c #DADAC3",
"8 	c #FFFFFB",
"9 	c #FFFFF7",
"0 	c #FFFFF4",
"a 	c #DADAC0",
"b 	c #FFFFFD",
"c 	c #FFFFF1",
"d 	c #FFFFF0",
"e 	c #FFFFED",
"f 	c #DADABF",
"g 	c #FFFFFA",
"h 	c #FFFFF5",
"i 	c #FFFFF2",
"j 	c #FFFFEE",
"k 	c #FFFFEA",
"l 	c #DADABC",
"m 	c #FFFFEB",
"n 	c #FFFFE8",
"o 	c #FFFFE6",
"p 	c #FFFFE4",
"q 	c #FFFFE3",
"r 	c #FFFFE1",
"s 	c #FFFFDF",
"t 	c #DADABA",
"u 	c #CECECC",
"v 	c #E5A566",
"w 	c #FED39A",
"x 	c #FEC585",
"y 	c #FFFFDC",
"z 	c #FFFFDB",
"A 	c #DADAB9",
"B 	c #CECECA",
"C 	c #FDC587",
"D 	c #FEC282",
"E 	c #F8AC62",
"F 	c #FFFFD6",
"G 	c #DADAB6",
"H 	c #CECEC7",
"I 	c #CECEC4",
"J 	c #FEC88A",
"K 	c #4E331B",
"L 	c #53504D",
"M 	c #55524F",
"N 	c #5C5A57",
"O 	c #54514E",
"P 	c #565350",
"Q 	c #C4864E",
"R 	c #524F4C",
"S 	c #F5F5F5",
"T 	c #ECECEC",
"U 	c #E4E4E4",
"V 	c #DCDCDC",
"W 	c #D4D4D4",
"X 	c #CBCBCB",
"Y 	c #C4C4C4",
"Z 	c #BCBCBC",
"` 	c #B5B5B5",
" .	c #B3B3B3",
"..	c #303030",
"+.	c #4A3119",
"@.	c #DBDBDB",
"#.	c #DFDFDE",
"$.	c #E8E8E7",
"%.	c #E6E6E4",
"&.	c #D2D2D1",
"*.	c #C7C7C6",
"=.	c #BABAB9",
"-.	c #ADADAC",
";.	c #A0A09F",
">.	c #949493",
",.	c #494948",
"'.	c #B77D44",
").	c #53514E",
"!.	c #DADADA",
"~.	c #DBDBDA",
"{.	c #E1E1E0",
"].	c #DDDDDC",
"^.	c #D6D6D5",
"/.	c #CBCBCA",
"(.	c #C1C1C0",
"_.	c #B6B6B5",
":.	c #A9A9A8",
"<.	c #686867",
"[.	c #222221",
"}.	c #493018",
"|.	c #CDCDCD",
"1.	c #CACAC9",
"2.	c #D5D5D4",
"3.	c #D2D2D0",
"4.	c #CCCCCB",
"5.	c #C2C2C1",
"6.	c #B9B9B8",
"7.	c #AFAFAE",
"8.	c #A2A2A1",
"9.	c #959594",
"0.	c #BEBEBC",
"a.	c #C4C4C2",
"b.	c #C6C6C5",
"c.	c #C3C3C2",
"d.	c #BFBFBE",
"e.	c #AEAEAD",
"f.	c #A5A5A4",
"g.	c #9E9E9D",
"h.	c #6F6F6E",
"i.	c #121212",
"j.	c #0A0A0A",
"k.	c #BDBDBD",
"l.	c #A6A6A5",
"m.	c #AAAAA8",
"n.	c #ADADAB",
"o.	c #AEAEAC",
"p.	c #ABABAA",
"q.	c #A7A7A6",
"r.	c #A1A1A0",
"s.	c #9A9A99",
"t.	c #949492",
"u.	c #8D8D8B",
"v.	c #232323",
"w.	c #4A4A4A",
"x.	c #4A4A49",
"y.	c #4C4C4B",
"z.	c #4C4C4C",
"A.	c #4B4B4A",
"B.	c #464646",
"C.	c #434343",
"D.	c #414140",
"E.	c #343433",
"F.	c #1F1F1E",
". . . . . . . . . . . . . . . . . . .   ",
". + @ # # # $ % & * = - ; > , ' ) @ .   ",
". @ @ ! ! ! ~ { ] ^ / ( _ : < [ [ @ .   ",
". . . . . . . . . . . . . . . . . . .   ",
". } + + + + + + + | | | | 1 2 3 4 5 .   ",
". } + + + + + + | | 1 | | | | 6 | 7 .   ",
". } + + + + + | 8 2 9 4 0 | | | | a .   ",
". } + + b 1 2 3 4 0 6 c d e | | | f .   ",
". } + g 2 9 h 6 i d j e k | | | | l .   ",
". } g 4 | | | | e m k n o p q r s t .   ",
". u 0 | v w x v | | | | | | | y z A .   ",
". B j | w C D E E E E E E E E | F G .   ",
". H I | J D K L L M N O O P P O | | | . ",
". . . | D Q R S S T U V W X Y Z `  .... ",
"      | D +.@.#.$.%.#.&.*.=.-.;.>.,.    ",
"      | '.).!.~.{.].^./.(._.:.;.<.[.    ",
"      | }.|.1.2.2.3.4.5.6.7.8.9.,.      ",
"      | P } 0.a.b.c.d._.e.f.g.h.i.      ",
"      j.k.l.m.n.o.p.q.r.s.t.u.,.        ",
"      v.w.x.y.z.y.A.,.B.C.D.E.F.        "};
