/* XPM */
static char * smile_xpm[] = {
"20 20 225 2",
"  	c None",
". 	c #FBDCB5",
"+ 	c #FCEFDA",
"@ 	c #FCECD9",
"# 	c #FDF1E3",
"$ 	c #FDF2DB",
"% 	c #FCE2BE",
"& 	c #F4BF7E",
"* 	c #FEF6E8",
"= 	c #FFFFF9",
"- 	c #FFFFFA",
"; 	c #FFFFFB",
"> 	c #FFFEF5",
", 	c #FFFCEE",
"' 	c #FFF4DF",
") 	c #F4CA90",
"! 	c #EA993E",
"~ 	c #FFEED1",
"{ 	c #FFF3DA",
"] 	c #FFF7E0",
"^ 	c #FFF9E3",
"/ 	c #FFFAE4",
"( 	c #FFF8E1",
"_ 	c #FFF5DB",
": 	c #FFF1D2",
"< 	c #FFEBC5",
"[ 	c #FFE5B8",
"} 	c #EFA73D",
"| 	c #DB6900",
"1 	c #F6BE7A",
"2 	c #FFDFAD",
"3 	c #FFE6B7",
"4 	c #FFEABE",
"5 	c #FFEDC3",
"6 	c #FFEEC3",
"7 	c #FFECC0",
"8 	c #FFEABA",
"9 	c #FFE6AF",
"0 	c #FFE0A1",
"a 	c #FFD991",
"b 	c #F5BB57",
"c 	c #E2890E",
"d 	c #E58202",
"e 	c #E07500",
"f 	c #F6BB59",
"g 	c #FED582",
"h 	c #FFDA8B",
"i 	c #C3B393",
"j 	c #F2D897",
"k 	c #FFE397",
"l 	c #FFE395",
"m 	c #FFE18E",
"n 	c #B9AA84",
"o 	c #EECC76",
"p 	c #FED468",
"q 	c #F7BE3A",
"r 	c #E89101",
"s 	c #D68807",
"t 	c #E48200",
"u 	c #E68A00",
"v 	c #EFA613",
"w 	c #FDD058",
"x 	c #FFD662",
"y 	c #817B69",
"z 	c #D5BE6C",
"A 	c #FFE06C",
"B 	c #FFDF6A",
"C 	c #FFDE64",
"D 	c #756F5B",
"E 	c #CFB350",
"F 	c #FED443",
"G 	c #F5B80E",
"H 	c #EEA000",
"I 	c #EA9E01",
"J 	c #E98E00",
"K 	c #ED9E00",
"L 	c #F0A900",
"M 	c #F8C313",
"N 	c #FED735",
"O 	c #5C5741",
"P 	c #C8B243",
"Q 	c #FFE344",
"R 	c #FFE241",
"S 	c #FFE23C",
"T 	c #514D35",
"U 	c #C2A929",
"V 	c #FBCF0E",
"W 	c #F5BA00",
"X 	c #F3AF00",
"Y 	c #F0A700",
"Z 	c #C28D08",
"` 	c #EF9A02",
" .	c #EE9B00",
"..	c #F2AD00",
"+.	c #F6BD00",
"@.	c #F8C600",
"#.	c #FAD102",
"$.	c #63550D",
"%.	c #DBC316",
"&.	c #FFE61B",
"*.	c #FFE71A",
"=.	c #FFE413",
"-.	c #62570A",
";.	c #D2B301",
">.	c #FAD100",
",.	c #F8C800",
"'.	c #F6BC00",
").	c #D29B08",
"!.	c #EC9502",
"~.	c #F1A600",
"{.	c #F6BA00",
"].	c #A17F00",
"^.	c #FCD400",
"/.	c #FDDB00",
"(.	c #E9CD00",
"_.	c #FBDF00",
":.	c #FFE700",
"<.	c #FFE800",
"[.	c #EAD200",
"}.	c #FEDE00",
"|.	c #C2A100",
"1.	c #D7A800",
"2.	c #F5B500",
"3.	c #E3AB06",
"4.	c #F1A003",
"5.	c #F3AB00",
"6.	c #F8C300",
"7.	c #8A7100",
"8.	c #F6D700",
"9.	c #FFE500",
"0.	c #FFEA00",
"a.	c #FFED00",
"b.	c #FFF100",
"c.	c #FFF200",
"d.	c #FFF000",
"e.	c #FFEE00",
"f.	c #A58D00",
"g.	c #D7AD00",
"h.	c #F7B900",
"i.	c #D9A309",
"j.	c #F4AC00",
"k.	c #F9C500",
"l.	c #997E00",
"m.	c #D7C000",
"n.	c #FFF300",
"o.	c #FFF600",
"p.	c #FFF900",
"q.	c #FFF700",
"r.	c #FCEA00",
"s.	c #897600",
"t.	c #E9C000",
"u.	c #F8BE00",
"v.	c #C19209",
"w.	c #F5AB00",
"x.	c #F9C400",
"y.	c #D0AE00",
"z.	c #988600",
"A.	c #FCEC00",
"B.	c #FFF500",
"C.	c #FFFA00",
"D.	c #FFFD00",
"E.	c #FFFE00",
"F.	c #FFFC00",
"G.	c #D2C300",
"H.	c #998400",
"I.	c #FACE00",
"J.	c #F7C301",
"K.	c #8A6C12",
"L.	c #F4AD02",
"M.	c #F8BC00",
"N.	c #978200",
"O.	c #C2B200",
"P.	c #FEF100",
"Q.	c #FFFF00",
"R.	c #EADF00",
"S.	c #887B00",
"T.	c #E4C700",
"U.	c #FED400",
"V.	c #E4BC06",
"W.	c #F7B200",
"X.	c #FCC700",
"Y.	c #EAC600",
"Z.	c #8C7A00",
"`.	c #AFA100",
" +	c #F4EA00",
".+	c #FEF900",
"++	c #D2CB00",
"@+	c #867D00",
"#+	c #C8B400",
"$+	c #FFDB00",
"%+	c #F9CF01",
"&+	c #826D15",
"*+	c #F9B601",
"=+	c #FDCB00",
"-+	c #F5CF00",
";+	c #AE9600",
">+	c #817300",
",+	c #958800",
"'+	c #9D9200",
")+	c #877D00",
"!+	c #928600",
"~+	c #E0CB00",
"{+	c #FFE000",
"]+	c #FAD101",
"^+	c #9F8610",
"/+	c #F8BA03",
"(+	c #FDC600",
"_+	c #FED300",
":+	c #F2CF00",
"<+	c #DFC400",
"[+	c #DBC200",
"}+	c #E9D000",
"|+	c #FCE100",
"1+	c #FFDD00",
"2+	c #F6D105",
"3+	c #978211",
"4+	c #DFAC0C",
"5+	c #F5BC03",
"6+	c #FBC601",
"7+	c #FECD00",
"8+	c #FED100",
"9+	c #FCD101",
"0+	c #F4CB04",
"a+	c #C6A610",
"b+	c #A78510",
"                                        ",
"              . + @ # $ %               ",
"          & * = - ; = > , ' )           ",
"        ! ~ { ] ^ / ( _ : < [ }         ",
"      | 1 2 3 4 5 6 7 8 9 0 a b c       ",
"    d e f g h i j k l m n o p q r s     ",
"    t u v w x y z A B C D E F G H I     ",
"    J K L M N O P Q R S T U V W X Y Z   ",
"  `  ...+.@.#.$.%.&.*.=.-.;.>.,.'.X ).  ",
"  !.~.{.].^./.(._.:.<.:.[._.}.|.1.2.3.  ",
"  4.5.6.7.8.9.0.a.b.c.b.d.e.:.f.g.h.i.  ",
"    j.k.l.m.a.n.o.p.q.q.o.n.r.s.t.u.v.  ",
"    w.x.y.z.A.B.C.D.E.E.F.o.G.H.I.J.K.  ",
"    L.M.I.N.O.P.C.E.Q.Q.D.R.S.T.U.V.    ",
"      W.X.Y.Z.`. +C.F..+++@+#+$+%+&+    ",
"        *+=+-+;+>+,+'+)+!+~+{+]+^+      ",
"          /+(+_+:+<+[+}+|+1+2+3+        ",
"            4+5+6+7+8+9+0+a+            ",
"                    b+                  ",
"                                        "};
