/* XPM */
static char * stock_cancel_xpm[] = {
"20 20 67 1",
" 	c None",
".	c #F90D04",
"+	c #F70C04",
"@	c #F30C04",
"#	c #F40C04",
"$	c #F60C04",
"%	c #E30C04",
"&	c #F10C04",
"*	c #DB0C04",
"=	c #F80C04",
"-	c #ED0C04",
";	c #B10B04",
">	c #4B0806",
",	c #130706",
"'	c #E40C04",
")	c #BF0B04",
"!	c #9E0A05",
"~	c #BA0B04",
"{	c #5E0905",
"]	c #200706",
"^	c #090706",
"/	c #EE0C04",
"(	c #DF0C04",
"_	c #C00B04",
":	c #C20B04",
"<	c #600905",
"[	c #220706",
"}	c #0C0706",
"|	c #070707",
"1	c #E00C04",
"2	c #F00C04",
"3	c #BB0B04",
"4	c #E50C04",
"5	c #F50C04",
"6	c #BE0B04",
"7	c #630905",
"8	c #230706",
"9	c #E10C04",
"0	c #DA0C04",
"a	c #8F0A05",
"b	c #3A0806",
"c	c #110706",
"d	c #AD0B04",
"e	c #610905",
"f	c #2D0706",
"g	c #EC0C04",
"h	c #D90C04",
"i	c #E20C04",
"j	c #DD0C04",
"k	c #AE0B04",
"l	c #7D0905",
"m	c #BD0B04",
"n	c #AC0B04",
"o	c #DE0C04",
"p	c #B70B04",
"q	c #940A05",
"r	c #3B0806",
"s	c #620905",
"t	c #B80B04",
"u	c #DC0C04",
"v	c #AF0B04",
"w	c #5A0905",
"x	c #860A05",
"y	c #3C0806",
"z	c #120706",
"A	c #3D0806",
"B	c #1A0706",
"                    ",
"                    ",
"                    ",
"              .+@   ",
"   .+#       .+$%   ",
"   +$&*     .+=-;>, ",
"   #&@')!  .+=-~{]^ ",
"    *'/(_:-+=-~<[}| ",
"     _(/'12+-3<[}|  ",
"     !_4@#5-678}|   ",
"      :95=#0abc|    ",
"      -25#@'def     ",
"     .++ghi-jkl     ",
"    .+=-manj-opq    ",
"   .+=-~7rsdo/jn    ",
"  .+=-~<8cfltu9vw   ",
"  .$-~<[}|  qnvxyz  ",
"  .%;{[}|     wAB^  ",
"    >]}|       z^|  ",
"    ,^|             "};
