/* XPM */
static char * stock_send_xpm[] = {
"20 20 8 1",
" 	c None",
".	c #9BBCC9",
"+	c #C4EEFF",
"@	c #7D97A0",
"#	c #676A6B",
"$	c #FFFF82",
"%	c #000080",
"&	c #800000",
"                    ",
"                    ",
"                    ",
"    ............... ",
"    .++++++++++++.@#",
"$$$ .+%%%+++++&&+.@#",
"    .+++++++++&&+.@#",
"$$$ .+%%+++++++++.@#",
"    .++++++++++++.@#",
"$$$ .++++%%%%%%++.@#",
"    .++++++++++++.@#",
"$$$ .++++%%%%%%++.@#",
"    .++++++++++++.@#",
"$$$ ..............@#",
"    .@@@@@@@@@@@@@@#",
"     ###############",
"                    ",
"                    ",
"                    ",
"                    "};
