/* XPM */
static char * search_xpm[] = {
"20 20 14 1",
" 	c None",
".	c #4C4C4C",
"+	c #FFFFFF",
"@	c #D6D6D6",
"#	c #C0C0C0",
"$	c #FF0000",
"%	c #A0A0A0",
"&	c #A00000",
"*	c #C90000",
"=	c #FFFF82",
"-	c #808080",
";	c #FFF1AF",
">	c #800000",
",	c #F4EFD2",
"                    ",
"   ..               ",
"  .+@.              ",
" .#++@.$            ",
" .%#++@.$           ",
"  .%#++@.           ",
"   .%#++@..         ",
"    .%#++@@...      ",
"     .%#++$$&&.     ",
"      .%#*$$$.===== ",
"      .-&&*$.;;;=== ",
"       .>&-.;;;;;;= ",
"       .>-.;,;;;;;; ",
"       .>.;;;,,;;;; ",
"        .=;;;;,,,;; ",
"         =;;;;,,,,, ",
"         ==;;;;,,,, ",
"         ==;;;;;,,, ",
"         ===;;;;,,, ",
"                    "};
