/* XPM */
static char * stock_next_xpm[] = {
"20 20 6 1",
" 	c None",
".	c #E1FF00",
"+	c #008000",
"@	c #00FF00",
"#	c #000000",
"$	c #FFFFFF",
"                    ",
"                    ",
"          .+        ",
"          .@+       ",
"          .@@+      ",
"          .@@@+     ",
"##########.@@@@+    ",
"#$$$$$$$$$.@@@@@+   ",
"#$$$$$$$$$.@@@@@@+  ",
"#$#######$.@@@@@@@+ ",
"#$$$$$$$$$.@@@@@@@# ",
"#$########.@@@@@@#  ",
"#$$$$$$$$$.@@@@@#   ",
"#$#######$.@@@@##   ",
"#$$$$$$$$$.@@@#$#   ",
"#$######$$.@@#$$#   ",
"#$$$$$$$$$.@#$$$#   ",
"#$########.###$$#   ",
"#$$$$$$$$$$$$$$$#   ",
"#$$$$$$$$$$$$$$$#   "};
