/* XPM */
static char * stock_left_xpm[] = {
"20 20 107 2",
"  	c None",
". 	c #899CB9",
"+ 	c #899DBA",
"@ 	c #376BBA",
"# 	c #9CB7E1",
"$ 	c #3066B8",
"% 	c #467AC8",
"& 	c #8AAADB",
"* 	c #356AB9",
"= 	c #4A7CC6",
"- 	c #5584CA",
"; 	c #769BD2",
"> 	c #4A78BE",
", 	c #3564AB",
"' 	c #416CAC",
") 	c #406AAB",
"! 	c #657EA4",
"~ 	c #133C7A",
"{ 	c #A5A5A5",
"] 	c #4F7FC8",
"^ 	c #5685CB",
"/ 	c #4376C2",
"( 	c #799ACA",
"_ 	c #749BD5",
": 	c #6E96D3",
"< 	c #638FD0",
"[ 	c #608CCF",
"} 	c #7299D5",
"| 	c #103165",
"1 	c #A4A4A4",
"2 	c #3F75C5",
"3 	c #4A7CC9",
"4 	c #4B7CC7",
"5 	c #4A7CC7",
"6 	c #4B7DC8",
"7 	c #477BC8",
"8 	c #4277C6",
"9 	c #3E74C5",
"0 	c #103265",
"a 	c #A2A2A2",
"b 	c #497CC8",
"c 	c #4679C6",
"d 	c #4478C6",
"e 	c #4075C5",
"f 	c #4176C5",
"g 	c #3B71C4",
"h 	c #346DC2",
"i 	c #103266",
"j 	c #A3A3A3",
"k 	c #8CA0BE",
"l 	c #1E5DBC",
"m 	c #2F69C1",
"n 	c #346CC2",
"o 	c #3A71C4",
"p 	c #3A71C3",
"q 	c #376EC1",
"r 	c #2D67BF",
"s 	c #2E67BE",
"t 	c #3069BE",
"u 	c #2D66BC",
"v 	c #2B64B9",
"w 	c #2E4566",
"x 	c #1B53A9",
"y 	c #1D5BB9",
"z 	c #235FB9",
"A 	c #1F5DB9",
"B 	c #1C58B3",
"C 	c #1C57B0",
"D 	c #B5B5B5",
"E 	c #2C4261",
"F 	c #1A52A7",
"G 	c #1C58B2",
"H 	c #1D5AB6",
"I 	c #A1A1A1",
"J 	c #253650",
"K 	c #1B55AD",
"L 	c #1B56AE",
"M 	c #6590D1",
"N 	c #263954",
"O 	c #1A51A4",
"P 	c #1D5BB8",
"Q 	c #5477AB",
"R 	c #376DBD",
"S 	c #1B55AC",
"T 	c #4D7FCA",
"U 	c #33455F",
"V 	c #3969B2",
"W 	c #2158AD",
"X 	c #5D78A1",
"Y 	c #113771",
"Z 	c #11366E",
"` 	c #0E2D5C",
" .	c #11346A",
"..	c #40536F",
"+.	c #2D62B1",
"@.	c #607BA4",
"#.	c #0E2E5D",
"$.	c #828282",
"%.	c #C4C4C4",
"&.	c #2E4363",
"*.	c #6686B6",
"=.	c #0F3062",
"-.	c #283C59",
";.	c #123872",
">.	c #2B405F",
",.	c #A0A0A0",
"'.	c #BFBFBF",
"                                        ",
"                    .                   ",
"                  + @                   ",
"                + # $                   ",
"              . % & *                   ",
"            + = - ; > , ' ) ! ~ {       ",
"          . ] ^ / ( _ : < [ } | 1       ",
"        + 2 3 4 5 6 6 7 8 9 [ 0 a       ",
"      . 9 b 8 c d e f 8 g h [ i j       ",
"    k l m n o p q r s t u v [ i 1       ",
"    w x y l l z A l l l B C [ i 1       ",
"    D E F G G H G G G G G G [ i I       ",
"      D J F K C L G C G G G M i 1       ",
"        D N O P L Q R y G S T | 1       ",
"          D U V W X Y Z Z Z `  .a       ",
"            D ..+.@.#.$.$.$.I 1 %.      ",
"              D &.*.=.{                 ",
"                D -.;.{                 ",
"                  D >.,.                ",
"                    D '.                "};
