/* XPM */
static char * stock_stepright_xpm[] = {
"20 20 7 1",
" 	c None",
".	c #BAEEFF",
"+	c #8ED3ED",
"@	c #6090A0",
"#	c #517987",
"$	c #75AFC4",
"%	c #40606B",
"                    ",
"      .   +         ",
"      .@  +#        ",
"      .+@ +$#       ",
"      .++@+$$#      ",
"      .+++@$$$#     ",
" ......++++@$$$#    ",
" .++++++++++@$$$#   ",
" .+++++++++++@$$$#  ",
" .+++++++++++%$$$%  ",
" .++++++++++%$$$%   ",
" .+++++++++%$$$%    ",
" +@@@@++++%$$$%     ",
"      .++%+$$%      ",
"      .+% +$%       ",
"      .%  +%        ",
"      .   +         ",
"                    ",
"                    ",
"                    "};
