/* XPM */
static char * stock_save_xpm[] = {
"20 20 256 2",
"  	c None",
". 	c #020202",
"+ 	c #12A226",
"@ 	c #0B8A1E",
"# 	c #8E8512",
"$ 	c #1AA629",
"% 	c #064F12",
"& 	c #ADA21B",
"* 	c #032E0C",
"= 	c #129E26",
"- 	c #0F2A0C",
"; 	c #7DAAE4",
"> 	c #74DF58",
", 	c #3F8DC4",
"' 	c #BFB21B",
") 	c #216E21",
"! 	c #92B2D3",
"~ 	c #1B9727",
"{ 	c #408CBC",
"] 	c #C2C447",
"^ 	c #02230F",
"/ 	c #D0C670",
"( 	c #26628B",
"_ 	c #342F0A",
": 	c #408BB6",
"< 	c #CFC66A",
"[ 	c #0C851E",
"} 	c #78A7D5",
"| 	c #448AB2",
"1 	c #021C09",
"2 	c #525118",
"3 	c #86A7CE",
"4 	c #ECE466",
"5 	c #39842E",
"6 	c #928A0A",
"7 	c #2D7D2C",
"8 	c #1B445E",
"9 	c #05160A",
"0 	c #2D5B72",
"a 	c #35B838",
"b 	c #649C60",
"c 	c #96DC4D",
"d 	c #908438",
"e 	c #82A7BE",
"f 	c #5E5E5E",
"g 	c #C4E660",
"h 	c #0D0E0A",
"i 	c #0A7C1B",
"j 	c #1D4146",
"k 	c #529850",
"l 	c #888342",
"m 	c #43C53F",
"n 	c #163F5A",
"o 	c #8499C4",
"p 	c #316E26",
"q 	c #484510",
"r 	c #164056",
"s 	c #76A7A0",
"t 	c #96F556",
"u 	c #0A0A08",
"v 	c #FEEA24",
"w 	c #697896",
"x 	c #0A6E1B",
"y 	c #51963F",
"z 	c #BEB869",
"A 	c #D5CE83",
"B 	c #7485A1",
"C 	c #3A3A3A",
"D 	c #96F871",
"E 	c #8395BD",
"F 	c #525453",
"G 	c #716619",
"H 	c #A99E1A",
"I 	c #ABA853",
"J 	c #060606",
"K 	c #064111",
"L 	c #4E993A",
"M 	c #91B4E9",
"N 	c #6AA2DA",
"O 	c #292A2A",
"P 	c #EBD91F",
"Q 	c #B5AA4A",
"R 	c #60738D",
"S 	c #6B84A1",
"T 	c #4ECD46",
"U 	c #BEB85C",
"V 	c #908523",
"W 	c #F9EA56",
"X 	c #A59A17",
"Y 	c #16535A",
"Z 	c #54A74D",
"` 	c #0E9020",
" .	c #0B661D",
"..	c #659DD0",
"+.	c #696016",
"@.	c #F7E54A",
"#.	c #164752",
"$.	c #7795BC",
"%.	c #837915",
"&.	c #423E13",
"*.	c #E3D772",
"=.	c #CECA59",
"-.	c #F5E76A",
";.	c #528E36",
">.	c #46835C",
",.	c #56D449",
"'.	c #2C6C99",
").	c #9CB0E2",
"!.	c #0B621B",
"~.	c #16394D",
"{.	c #333332",
"].	c #B2A619",
"^.	c #FAE622",
"/.	c #507977",
"(.	c #BCB64B",
"_.	c #E2D67A",
":.	c #0E9622",
"<.	c #16524E",
"[.	c #668396",
"}.	c #72994F",
"|.	c #548DB6",
"1.	c #224E46",
"2.	c #585535",
"3.	c #F8EA4E",
"4.	c #E9E260",
"5.	c #5F4F08",
"6.	c #6BA2D0",
"7.	c #D9D85A",
"8.	c #21220C",
"9.	c #C2FA7B",
"0.	c #CCC952",
"a.	c #4E8BB2",
"b.	c #4F460D",
"c.	c #746F43",
"d.	c #6C93BC",
"e.	c #96F66A",
"f.	c #A19614",
"g.	c #C2F972",
"h.	c #898326",
"i.	c #B7F866",
"j.	c #96FA85",
"k.	c #1F2528",
"l.	c #3E3A0E",
"m.	c #665A10",
"n.	c #2A2A0E",
"o.	c #928A16",
"p.	c #085E16",
"q.	c #597492",
"r.	c #A29A60",
"s.	c #163E4E",
"t.	c #1E1E1E",
"u.	c #A0BAEF",
"v.	c #3B6079",
"w.	c #FAEA4A",
"x.	c #ADB83E",
"y.	c #B6AA1A",
"z.	c #5998CB",
"A.	c #92A962",
"B.	c #123242",
"C.	c #FAF04E",
"D.	c #26705A",
"E.	c #BEB63A",
"F.	c #797837",
"G.	c #9D983F",
"H.	c #6CE556",
"I.	c #E4D420",
"J.	c #3E8BAA",
"K.	c #EEDE22",
"L.	c #5B91BD",
"M.	c #16564A",
"N.	c #D1C21D",
"O.	c #F5F261",
"P.	c #C2F86A",
"Q.	c #2F7EAF",
"R.	c #989352",
"S.	c #766D16",
"T.	c #CDBE1B",
"U.	c #06490F",
"V.	c #ACA646",
"W.	c #E6DC7F",
"X.	c #D3D756",
"Y.	c #41933B",
"Z.	c #5E8496",
"`.	c #68D953",
" +	c #568EB2",
".+	c #77EB5C",
"++	c #EFE273",
"@+	c #1C1B0A",
"#+	c #6BA2BB",
"$+	c #5195CC",
"%+	c #362A06",
"&+	c #527293",
"*+	c #FAEA5F",
"=+	c #A0953A",
"-+	c #39360D",
";+	c #EEE27A",
">+	c #124146",
",+	c #F8EA72",
"'+	c #075A18",
")+	c #F6E229",
"!+	c #819095",
"~+	c #DACB1F",
"{+	c #3EBC3D",
"]+	c #0E9E25",
"^+	c #484949",
"/+	c #828422",
"(+	c #656039",
"_+	c #726E36",
":+	c #20536E",
"<+	c #AAA442",
"[+	c #27B031",
"}+	c #3F8BA6",
"|+	c #9E9216",
"1+	c #3286BE",
"2+	c #897D2A",
"3+	c #FEF295",
"4+	c #3F452C",
"5+	c #7490B6",
"6+	c #FAEA46",
"7+	c #F5EF66",
"8+	c #236079",
"9+	c #BDAE1A",
"0+	c #F6EE6A",
"a+	c #FAF66A",
"b+	c #60560E",
"c+	c #242318",
"d+	c #D4D852",
"e+	c #B2A846",
"f+	c #A9BDF5",
"g+	c #96F67E",
"h+	c #62C84D",
"i+	c #629592",
"j+	c #04380F",
"k+	c #F8E636",
"l+	c #516773",
"m+	c #8FA9D7",
"n+	c #161616",
"o+	c #12120C",
"p+	c #7D7949",
"q+	c #E9FA6F",
"r+	c #2E77A3",
"s+	c #C6B81B",
"t+	c #065613",
"u+	c #B3AB62",
"v+	c #7891B1",
"w+	c #5192BD",
"x+	c #4C84A7",
"y+	c #5DB848",
"z+	c #0E0A02",
"A+	c #17160A",
"B+	c #1A1A1A",
"C+	c #313022",
"D+	c #A29E54",
"E+	c #594906",
"F+	c #988F2F",
"G+	c #272408",
"                              >.f+      ",
"                              #+1+f+    ",
"                          l+z.1+1+1+f+  ",
"                o       l+z.1+, 1+1+'.8+",
"                ..E     z.1+1+1+1+(     ",
"                N 1+m+, 1+, 1+1+'.      ",
"        %+%+%+G+..1+1+1+1+1+1+(  .      ",
"    8.G+_ %+%+%+N 1+, 1+1+1+8+          ",
"    %+%+n.%+%+%+N 1+1+1+1+x+            ",
"    %+%+%+%+%+*+w.@.3.3.3.3.@.@.@.N.G+  ",
"    n.%+%+_ r.K.K.K.K.)+K.K.K.K.s+%.    ",
"    %+%+%+%+@.K.K.K.P ^.K.P K.K.y.G+    ",
"    %+_ %+/ P K.K.K.K.)+K.K.K.s+6       ",
"    %+%+_ k+^.K.^.P K.^.K.K.P y._       ",
"    %+_ z K.K.K.K.K.K.P P )+T.|+        ",
"    _ C k+P )+K.K.K.K.K.K.P 9+-+        ",
"    %+_.N.T.T.T.N.N.T.T.T.s+|+          ",
"    A+E+b.q q q q q q &.&.l.G+          ",
"                                        ",
"                                        "};
