/* XPM */
static char * stock_new_xpm[] = {
"20 20 7 1",
" 	c None",
".	c #808080",
"+	c #F9F616",
"@	c #FFFF00",
"#	c #000000",
"$	c #FFFFFF",
"%	c #898982",
"                    ",
"      .+            ",
"   +  .+  .+        ",
"   .@ .+ .@         ",
"    .@.+.@####      ",
"  ++++++@+@+@##     ",
"   ...+++$$$$#$#    ",
"     +.+.+##$#$$#   ",
"   .+ .+$$+$$#####  ",
"   +  .+$######$$#% ",
"      #$$$$$$$$$$#% ",
"      #$########$#% ",
"      #$$$$$$$$$$#% ",
"      #$#######$$#% ",
"      #$$$$$$$$$$#% ",
"      #$########$#% ",
"      #$$$$$$$$$$#% ",
"      #$$$$$$$$$$#% ",
"      ############% ",
"       %%%%%%%%%%%% "};
