/* XPM */
static char * stock_ok_xpm[] = {
"20 20 66 1",
" 	c None",
".	c #73E30E",
"+	c #64900D",
"@	c #32DD10",
"#	c #0FA60C",
"$	c #062805",
"%	c #3ADF10",
"&	c #0EBD0E",
"*	c #034403",
"=	c #3DE010",
"-	c #0FCC0F",
";	c #055605",
">	c #44E110",
",	c #10D510",
"'	c #087108",
")	c #53DB17",
"!	c #148A12",
"~	c #4BE210",
"{	c #11D910",
"]	c #0A900A",
"^	c #051E05",
"/	c #5ADA17",
"(	c #13DB11",
"_	c #0DB90E",
":	c #52E30F",
"<	c #12DB11",
"[	c #0CAC0C",
"}	c #052C05",
"|	c #6CDD0F",
"1	c #15DB11",
"2	c #11DB11",
"3	c #10D710",
"4	c #077013",
"5	c #56E30F",
"6	c #0EBF0E",
"7	c #064006",
"8	c #498B0A",
"9	c #17C80F",
"0	c #0EA00B",
"a	c #5BE30F",
"b	c #0FCD0F",
"c	c #085D08",
"d	c #066406",
"e	c #31AC0B",
"f	c #19DC11",
"g	c #10D610",
"h	c #087808",
"i	c #162819",
"j	c #076C07",
"k	c #10D210",
"l	c #10D810",
"m	c #10D910",
"n	c #0A960A",
"o	c #0D2D12",
"p	c #087B08",
"q	c #10DB10",
"r	c #0CAF0C",
"s	c #08360C",
"t	c #0A8B0A",
"u	c #0EC10E",
"v	c #064B08",
"w	c #022606",
"x	c #0A970B",
"y	c #066307",
"z	c #02300F",
"A	c #012313",
"                    ",
"                    ",
"                    ",
"                 .+ ",
"                @#$ ",
"               %&*  ",
"              =-;   ",
"             >,'    ",
"     )!     ~{]^    ",
"    /(_    :<[}     ",
"   |1234  5(67      ",
"  892220 a1bc       ",
"   db22-efghi       ",
"    jk22lmno        ",
"     pg2qrs         ",
"      tluv          ",
"      wxy           ",
"       zA           ",
"                    ",
"                    "};
