/* XPM */
static char * stock_refresh_xpm[] = {
"18 18 12 1",
" 	c None",
".	c #878700",
"+	c #595900",
"@	c #706128",
"#	c #474603",
"$	c #BCBC00",
"%	c #E8E800",
"&	c #605F04",
"*	c #FFFF00",
"=	c #777505",
"-	c #828200",
";	c #808000",
"                  ",
"      .....+      ",
"     @#@$$$$+     ",
"    @###@%%%+     ",
"    @&&&&@***+    ",
"   @&&&@@@***@@+  ",
"   @====@*****+   ",
"   @====+@***+    ",
"   @-;;;+ @*+     ",
"   @-;--+  +      ",
"   @----+         ",
"   @====+@@@@+    ",
"   @====+@***+    ",
"    @&&&@****+    ",
"     @##@%%%+     ",
"     @#@$$$+      ",
"      ....+       ",
"                  "};
