/* XPM */
static char * stock_no_xpm[] = {
"20 20 161 2",
"  	c None",
". 	c #FF8D18",
"+ 	c #FF720F",
"@ 	c #FF710F",
"# 	c #FF790F",
"$ 	c #FF8017",
"% 	c #FF9427",
"& 	c #FF8415",
"* 	c #FF4203",
"= 	c #FF1903",
"- 	c #FF0B04",
"; 	c #FF0C04",
"> 	c #FF1104",
", 	c #FF2C03",
"' 	c #FF6703",
") 	c #FF9819",
"! 	c #FF5B07",
"~ 	c #FF1803",
"{ 	c #FE0A04",
"] 	c #FA0804",
"^ 	c #F30704",
"/ 	c #DD0603",
"( 	c #D60603",
"_ 	c #E50603",
": 	c #F80804",
"< 	c #FE0B04",
"[ 	c #FF2F02",
"} 	c #FC800D",
"| 	c #FF4D06",
"1 	c #FF0D04",
"2 	c #FF0905",
"3 	c #F62803",
"4 	c #B42008",
"5 	c #A92726",
"6 	c #9B2625",
"7 	c #A50D0C",
"8 	c #D30502",
"9 	c #FB0804",
"0 	c #F71903",
"a 	c #A1160E",
"b 	c #FF7E0F",
"c 	c #FF1204",
"d 	c #FE0804",
"e 	c #FD0804",
"f 	c #FE1004",
"g 	c #F9580F",
"h 	c #972121",
"i 	c #D51C03",
"j 	c #FE0C04",
"k 	c #C00402",
"l 	c #902020",
"m 	c #FF5002",
"n 	c #FF0904",
"o 	c #C20604",
"p 	c #F90804",
"q 	c #FF1004",
"r 	c #FF5E16",
"s 	c #E5741E",
"t 	c #FD3303",
"u 	c #EF0703",
"v 	c #980808",
"w 	c #FF9A1B",
"x 	c #FF2503",
"y 	c #BC0B09",
"z 	c #C6100E",
"A 	c #FF6116",
"B 	c #EE5B09",
"C 	c #FE0F04",
"D 	c #CB0502",
"E 	c #FF8715",
"F 	c #AD201F",
"G 	c #C50F0D",
"H 	c #FF1304",
"I 	c #FF631A",
"J 	c #E25B1C",
"K 	c #FE1904",
"L 	c #9E1F1E",
"M 	c #FF750F",
"N 	c #FF0E04",
"O 	c #F50804",
"P 	c #B12E2D",
"Q 	c #C50F0C",
"R 	c #FF641C",
"S 	c #E5642B",
"T 	c #FE2703",
"U 	c #A91E1D",
"V 	c #FF7410",
"W 	c #EB0704",
"X 	c #A12C2B",
"Y 	c #C40F0C",
"Z 	c #FF671E",
"` 	c #DE652A",
" .	c #FE2C03",
"..	c #B11F1D",
"+.	c #FF8013",
"@.	c #FF0F04",
"#.	c #F10704",
"$.	c #9E1C1B",
"%.	c #C30D0A",
"&.	c #FF1504",
"*.	c #FF6922",
"=.	c #E26F1B",
"-.	c #FE1F03",
";.	c #EB0703",
">.	c #9F2121",
",.	c #FF9918",
"'.	c #FF2703",
").	c #B50907",
"!.	c #C20C0A",
"~.	c #FF1604",
"{.	c #FE6C19",
"].	c #FC6606",
"^.	c #D10502",
"/.	c #982B2B",
"(.	c #FF5D05",
"_.	c #FF0A04",
":.	c #E90703",
"<.	c #9C1818",
"[.	c #FF1503",
"}.	c #FF1B03",
"|.	c #FC0804",
"1.	c #AB0604",
"2.	c #FF8424",
"3.	c #DC0803",
"4.	c #D44A17",
"5.	c #CB6B34",
"6.	c #E43402",
"7.	c #E40603",
"8.	c #951716",
"9.	c #F56112",
"0.	c #F10C03",
"a.	c #FD3F02",
"b.	c #F97D06",
"c.	c #FE9D14",
"d.	c #FEA21D",
"e.	c #EF8C28",
"f.	c #F67E1A",
"g.	c #FE6305",
"h.	c #FE3502",
"i.	c #E80603",
"j.	c #A60907",
"k.	c #9B0A08",
"l.	c #DB0502",
"m.	c #FE1503",
"n.	c #FF3203",
"o.	c #FF3703",
"p.	c #FE2503",
"q.	c #FE1304",
"r.	c #980C0B",
"s.	c #931817",
"t.	c #A50605",
"u.	c #C10402",
"v.	c #DC0603",
"w.	c #DF0603",
"x.	c #D90503",
"y.	c #C80402",
"z.	c #941F1F",
"A.	c #952323",
"B.	c #962221",
"C.	c #942121",
"D.	c #942323",
"                                        ",
"              . + @ # $ %               ",
"          & * = - - ; > , ' )           ",
"        ! ~ { ] ^ / ( _ : < [ }         ",
"      | 1 2 3 4 5     6 7 8 9 0 a       ",
"    b c d e f g           h i j k l     ",
"    m n _ o p q r           s t u v     ",
"  w x d y   z p c A           B C D     ",
"  E c p F     G p H I         J K u L   ",
"  M N O P       Q p H R       S T : U   ",
"  V 1 W X         Y p H Z     `  .] ..  ",
"  +.@.#.$.          %.p &.*.  =.-.;.>.  ",
"  ,.'.e ).            !.p ~.{.].j ^./.  ",
"    (._.:.<.            !.p [.}.|.1.    ",
"    2.x d 3.4.          5.6.- n 7.8.    ",
"      9.0.{ a.b.c.d.e.f.g.h.{ i.j.      ",
"        k.l.9 m.n.o.p.q.{ p ^.r.        ",
"          s.t.u.v.7.w.x.y.t.z.          ",
"                A.B.C.D.                ",
"                                        "};
