/* XPM */
static char * stock_delete_xpm[] = {
"20 20 12 1",
" 	c None",
".	c #A07A41",
"+	c #FFE1A0",
"@	c #F4C675",
"#	c #C9A360",
"$	c #E0B56B",
"%	c #FF9AA0",
"&	c #804000",
"*	c #FF6565",
"=	c #C40000",
"-	c #990000",
";	c #FF0000",
"                    ",
"  ......            ",
" .++++++.........   ",
" .......++++++++@.  ",
" .+@@@@@@@@@@@@@#.  ",
" .+@@@@@@@@@@@@$#.  ",
" .+@@@@@@@@@@@@$#.  ",
" .+@@@@@@@@@@@@$#.  ",
" .+@@@@@@@@@@@@$#.  ",
" .+@@@@@@@@@@@@$#.  ",
" .+@@@@@@@@@@@@$#.  ",
" .+@@@@@@@@@@@@$#.  ",
" .+@@@%%%%%%%%%%%%& ",
" .+$$$%**********=- ",
" .####%*;;;;;;;;;=- ",
"  ....%*;;;;;;;;;=- ",
"      %===========- ",
"      =------------ ",
"                    ",
"                    "};
