/* XPM */
static char * printer_xpm[] = {
"20 20 6 1",
" 	c None",
".	c #008080",
"+	c #000000",
"@	c #C0C0C0",
"#	c #FF0000",
"$	c #FFFFFF",
"                    ",
"           ++++++   ",
"   +++++++++####+   ",
"   +#########++++   ",
"   +#########+      ",
"   +#########++++   ",
"   +++++++++####+   ",
"           ++++++   ",
"     ++++++++++++   ",
"    +@@@@@@@@@@+@+  ",
"   ++++++++++@+@++  ",
"  +@@@@@@@@@@+@+@+  ",
"  +++++++++++++@@+  ",
"  +@@@@@@###@@+@+   ",
"  +@@@@@@$$$@@+++   ",
"  +++++++++++++@+   ",
"   +@@@@@@@@@+@+    ",
"    +++++++++++     ",
"                    ",
"                    "};
