/* XPM */
static char * stock_right_xpm[] = {
"20 20 109 2",
"  	c None",
". 	c #899CB9",
"+ 	c #376BBA",
"@ 	c #899DBA",
"# 	c #3066B8",
"$ 	c #9CB7E1",
"% 	c #356AB9",
"& 	c #8AAADB",
"* 	c #467AC8",
"= 	c #133C7A",
"- 	c #657EA4",
"; 	c #426394",
"> 	c #416CAC",
", 	c #3564AB",
"' 	c #4A78BE",
") 	c #769BD2",
"! 	c #5584CA",
"~ 	c #4A7CC6",
"{ 	c #A4A4A4",
"] 	c #103165",
"^ 	c #7299D5",
"/ 	c #6B94D3",
"( 	c #638FD0",
"_ 	c #6E96D3",
": 	c #749BD5",
"< 	c #799ACA",
"[ 	c #4376C2",
"} 	c #5685CB",
"| 	c #4F7FC8",
"1 	c #A2A2A2",
"2 	c #103265",
"3 	c #608CCF",
"4 	c #2A61B5",
"5 	c #4277C6",
"6 	c #477BC8",
"7 	c #4B7DC8",
"8 	c #4A7CC7",
"9 	c #4B7CC7",
"0 	c #4A7CC9",
"a 	c #3F75C5",
"b 	c #A3A3A3",
"c 	c #103266",
"d 	c #2B61B3",
"e 	c #3B71C4",
"f 	c #4176C5",
"g 	c #4075C5",
"h 	c #4478C6",
"i 	c #4679C6",
"j 	c #497CC8",
"k 	c #3E74C5",
"l 	c #2960B3",
"m 	c #2D66BC",
"n 	c #3069BE",
"o 	c #2E67BE",
"p 	c #2D67BF",
"q 	c #376EC1",
"r 	c #3A71C3",
"s 	c #3A71C4",
"t 	c #346CC2",
"u 	c #2F69C1",
"v 	c #1E5DBC",
"w 	c #8CA0BE",
"x 	c #1D5AB6",
"y 	c #1C58B3",
"z 	c #1F5DB9",
"A 	c #235FB9",
"B 	c #1D5BB9",
"C 	c #1B53A9",
"D 	c #2E4566",
"E 	c #A1A1A1",
"F 	c #1C58B2",
"G 	c #1A52A7",
"H 	c #2C4261",
"I 	c #B5B5B5",
"J 	c #6590D1",
"K 	c #1C57B0",
"L 	c #1B56AE",
"M 	c #1B55AD",
"N 	c #253650",
"O 	c #4D7FCA",
"P 	c #376DBD",
"Q 	c #5477AB",
"R 	c #1D5BB8",
"S 	c #1A51A4",
"T 	c #263954",
"U 	c #11346A",
"V 	c #0E2D5C",
"W 	c #103164",
"X 	c #11366E",
"Y 	c #113771",
"Z 	c #5D78A1",
"` 	c #2158AD",
" .	c #3969B2",
"..	c #33455F",
"+.	c #C4C4C4",
"@.	c #828282",
"#.	c #0E2E5D",
"$.	c #607BA4",
"%.	c #2D62B1",
"&.	c #394C68",
"*.	c #A5A5A5",
"=.	c #0F3062",
"-.	c #6686B6",
";.	c #2E4363",
">.	c #123872",
",.	c #283C59",
"'.	c #A0A0A0",
").	c #2B405F",
"!.	c #BFBFBF",
"                                        ",
"                  .                     ",
"                  + @                   ",
"                  # $ @                 ",
"                  % & * .               ",
"        = - ; > , ' ) ! ~ @             ",
"      { ] ^ / ( _ : < [ } | .           ",
"      1 2 3 4 5 6 7 7 8 9 0 a @         ",
"      b c 3 d e 5 f g h i 5 j k .       ",
"      { c 3 l m n o p q r s t u v w     ",
"      { c 3 x y v v v z A v v B C D     ",
"      E c 3 y F F F F F x F F G H I     ",
"      { c J B F F K F L K M G N I       ",
"      { ] O y F B P Q L R S T I         ",
"      1 U V W X X Y Z `  ...I           ",
"      +.{ E { @.@.#.$.%.&.I             ",
"                *.=.-.;.I               ",
"                *.>.,.I                 ",
"                '.).I                   ",
"                !.I                     "};
