/* XPM */
static char * stock_printer_xpm[] = {
"20 20 256 2",
"  	c None",
". 	c #020202",
"+ 	c #060A06",
"@ 	c #5E5E52",
"# 	c #0EC60E",
"$ 	c #46F646",
"% 	c #727262",
"& 	c #16C616",
"* 	c #868672",
"= 	c #1A1A16",
"- 	c #DEDECA",
"; 	c #8E8E7B",
"> 	c #2E2E26",
", 	c #BAB69E",
"' 	c #BEBEA6",
") 	c #9A9A86",
"! 	c #3A3A32",
"~ 	c #C6C2AA",
"{ 	c #A2A28D",
"] 	c #CECAAE",
"^ 	c #46463A",
"/ 	c #FA1A0A",
"( 	c #A6A691",
"_ 	c #D2CEB2",
": 	c #B6B69F",
"< 	c #4E4E42",
"[ 	c #FA1606",
"} 	c #EE6E56",
"| 	c #AAAA92",
"1 	c #EAEAD6",
"2 	c #EE3222",
"3 	c #666656",
"4 	c #DAD2BA",
"5 	c #7A120A",
"6 	c #F2F2E6",
"7 	c #828272",
"8 	c #525246",
"9 	c #E2DAC2",
"0 	c #BA1E0E",
"a 	c #060602",
"b 	c #262A22",
"c 	c #AEAE9A",
"d 	c #EE7662",
"e 	c #121612",
"f 	c #7A7A6A",
"g 	c #9AD686",
"h 	c #5A5A4E",
"i 	c #26261E",
"j 	c #DAD6BA",
"k 	c #6E6E5E",
"l 	c #161212",
"m 	c #F6F6EF",
"n 	c #B2B29A",
"o 	c #DEDABE",
"p 	c #12120E",
"q 	c #969682",
"r 	c #32322A",
"s 	c #FAFAF2",
"t 	c #1E221E",
"u 	c #5A0E0A",
"v 	c #3E3E36",
"w 	c #060202",
"x 	c #626256",
"y 	c #8A8A76",
"z 	c #5A564A",
"A 	c #0A0E0A",
"B 	c #6A6A5A",
"C 	c #BEBAA2",
"D 	c #E6B29A",
"E 	c #9E9E8A",
"F 	c #767666",
"G 	c #CEC6AE",
"H 	c #92927E",
"I 	c #46423A",
"J 	c #4A4A3E",
"K 	c #FEFEFA",
"L 	c #7E7A6A",
"M 	c #5E5A4E",
"N 	c #D2D2D2",
"O 	c #56564A",
"P 	c #36362E",
"Q 	c #BED6A2",
"R 	c #CAC6AA",
"S 	c #D2AA92",
"T 	c #3ECA36",
"U 	c #42423A",
"V 	c #DED6BE",
"W 	c #7E7E6E",
"X 	c #221E1B",
"Y 	c #666256",
"Z 	c #4E4A42",
"` 	c #726E5E",
" .	c #E4E4E4",
"..	c #7A7666",
"+.	c #524E46",
"@.	c #EAEAEA",
"#.	c #8E8A76",
"$.	c #625E52",
"%.	c #1E1A16",
"&.	c #565246",
"*.	c #D6D2B6",
"=.	c #B6B29E",
"-.	c #B2AE96",
";.	c #E6E2CC",
">.	c #969696",
",.	c #929292",
"'.	c #423E36",
").	c #3A362E",
"!.	c #6A665A",
"~.	c #6E6A5E",
"{.	c #0E0A0A",
"].	c #22C61E",
"^.	c #5A423A",
"/.	c #929286",
"(.	c #E2C6AE",
"_.	c #A29E8E",
":.	c #827E6E",
"<.	c #AAAA96",
"[.	c #767262",
"}.	c #BAB6A2",
"|.	c #1E1E1A",
"1.	c #C2BEA6",
"2.	c #EEEEDE",
"3.	c #DADADA",
"4.	c #4A463E",
"5.	c #92120A",
"6.	c #96927E",
"7.	c #CECAB6",
"8.	c #868272",
"9.	c #C6C6C6",
"0.	c #0A0606",
"a.	c #5E5A52",
"b.	c #9A9682",
"c.	c #928E7A",
"d.	c #AEA692",
"e.	c #62625A",
"f.	c #36322E",
"g.	c #D2CAB2",
"h.	c #C2BEAA",
"i.	c #B2AE9A",
"j.	c #8A8676",
"k.	c #CAC2AA",
"l.	c #0A0A0A",
"m.	c #B6B6B6",
"n.	c #322E2A",
"o.	c #0E0E0E",
"p.	c #DAD6BE",
"q.	c #FEFEFE",
"r.	c #D6D2BA",
"s.	c #2E2A26",
"t.	c #26221E",
"u.	c #76766A",
"v.	c #2A2622",
"w.	c #3E3A32",
"x.	c #060606",
"y.	c #F2EEE6",
"z.	c #FEFAFA",
"A.	c #9A9A8A",
"B.	c #928E7E",
"C.	c #4A4A42",
"D.	c #6E6E6E",
"E.	c #BABAA6",
"F.	c #1A1616",
"G.	c #F2F2F2",
"H.	c #6A6A6A",
"I.	c #423E3A",
"J.	c #AAA68E",
"K.	c #D6CEB6",
"L.	c #FAFAF6",
"M.	c #726E62",
"N.	c #CECAB2",
"O.	c #F2EEE2",
"P.	c #EAE6D6",
"Q.	c #9A9686",
"R.	c #1DC61B",
"S.	c #9E9A86",
"T.	c #AEAA92",
"U.	c #A29E8A",
"V.	c #4E4E46",
"W.	c #BEBAA6",
"X.	c #5A564E",
"Y.	c #625E56",
"Z.	c #9E9E9E",
"`.	c #D2CEB6",
" +	c #FAF6F2",
".+	c #120E0E",
"++	c #7E7A6E",
"@+	c #121212",
"#+	c #A6A28E",
"$+	c #C6BEAA",
"%+	c #7A766A",
"&+	c #969282",
"*+	c #AEAA9A",
"=+	c #F6F2EA",
"-+	c #323232",
";+	c #767266",
">+	c #C2BAA6",
",+	c #2A2A26",
"'+	c #1A1A1A",
")+	c #B6B29A",
"!+	c #161616",
"~+	c #2ACA26",
"{+	c #827E72",
"]+	c #FAFAFA",
"^+	c #F6F6F6",
"/+	c #EEEEEE",
"(+	c #6E6E62",
"_+	c #C6C6AE",
":+	c #EAE6D2",
"<+	c #6A6A5E",
"[+	c #BAB29E",
"}+	c #AEAA96",
"|+	c #BEB6A2",
"1+	c #C6BEA6",
"2+	c #56524A",
"3+	c #868276",
"4+	c #A6A292",
"5+	c #66665A",
"6+	c #8A8A7A",
"7+	c #AAA692",
"8+	c #2E2E2A",
"9+	c #32322E",
"0+	c #929282",
"a+	c #F62E1E",
"b+	c #B6AE9A",
"c+	c #1A1E1A",
"d+	c #46463E",
"e+	c #262622",
"f+	c #8E8A7A",
"g+	c #26CA22",
"h+	c #52524A",
"i+	c #66625A",
"j+	c #3A3632",
"k+	c #6A665E",
"l+	c #626262",
"m+	c #928E82",
"n+	c #727266",
"o+	c #3E3A36",
"p+	c #868676",
"q+	c #C6C2AE",
"r+	c #1E1A1A",
"s+	c #8A867A",
"t+	c #AAA696",
"u+	c #EEEEE2",
"v+	c #0A0A06",
"w+	c #E2DEC6",
"x+	c #EEEADA",
"y+	c #2A2A22",
"z+	c #161612",
"A+	c #22221E",
"B+	c #0E0E0A",
"C+	c #120A0A",
"D+	c #969286",
"E+	c #9E9A8A",
"F+	c #9A9282",
"G+	c #CAC6AE",
"                                        ",
"                                        ",
"                                        ",
"                q.q.q.q.q.q.q.          ",
"              q.q.q.q.q.q.q.q.)+        ",
"              q.q.q.q.q.q.q.q.)+        ",
"            g.q.q.q.q.q.q.q.9 )+        ",
"        , w+q.q.q.q.q.q.q.q.. o ( t.    ",
"      N.o o o o o o o o o o o B.=.i     ",
"    o o w+o o o o o o o o o f )+=.,+    ",
"  M Y o - - w+w+- w+9 9 9 o #.)+)+y+    ",
"  h - o w+w+w+w+w+o w+o # o * =.[+8+. . ",
"  M o w+o o w+o o o o o o 9 j.=.=.x..   ",
"  M o . . . . . . . . . . 9 :.[+l..     ",
"  M )+. . . . . . . . , . w+L O w       ",
"  [+x+q.q.q.q.q.q.q.[+=.o _ y+          ",
"  q.q.q.q.q.q.q.q.. . x.                ",
"q.q.q.q.q.q.q.q.. .                     ",
"                                        ",
"                                        "};
