/* XPM */
static char * stock_printer_xpm[] = {
"20 20 12 1",
" 	c None",
".	c #F70602",
"+	c #9B1515",
"@	c #706A6A",
"#	c #665F5F",
"$	c #878080",
"%	c #D6CDCD",
"&	c #000000",
"*	c #938F8F",
"=	c #05B73A",
"-	c #685D5D",
";	c #FFFFFF",
"       .....        ",
"        +++..       ",
"           .......  ",
"           .......+ ",
"       .....+++++++ ",
"        ++++        ",
"     @@@@@@@@@@@@## ",
"    $%%%%%%%%%%%%#& ",
"   $%%%%%%%%%%%%#*& ",
"  $@@@@@@@@@@@@@**& ",
"  $%%%%%%%%%%%%@**& ",
"  $%.%%%%%%%%=%@**& ",
"  $%%%%%%%%%%%%@**&-",
"  $%%#########%@**&-",
"  $%;;;;;;;;;%%@*&--",
"  $;;;;;;;;;%%%@&---",
"  ;;;;;;;;;&&&&&--- ",
" ;;;;;;;;;          ",
";;;;;;;;;           ",
"                    "};
