/* XPM */
static char * stock_calendar_xpm[] = {
"20 20 6 1",
" 	c None",
".	c #E2E0E0",
"+	c #FFFFFF",
"@	c #8E8E8E",
"#	c #666262",
"$	c #F40707",
"                    ",
"   ..............   ",
"   .++++++++++++@#  ",
"   .+++$$$$$$$++@#  ",
"   .+++$$$$$$$++@#  ",
"   .++++++++$$++@#  ",
"   .++++++++$$++@#  ",
"   .+++++++$$+++@#  ",
"   .+++++++$$+++@#  ",
"   .++++++$$$+++@#  ",
"   .++++++$$++++@#  ",
"   ..+++++$$++++@   ",
"   ..+++++$$$+++@@  ",
"   ..++++++$$+++@@  ",
"   .@.+++++++++++@  ",
"   .@.+++++++++++@  ",
"   .@@.+++++++++++@ ",
"   .@@@.@@@@@@@@@@@ ",
"     ############## ",
"                    "};
