/* XPM */
static char * stock_prior_xpm[] = {
"20 20 7 1",
" 	c None",
".	c #E1FF00",
"+	c #1C771C",
"@	c #00FF00",
"#	c #000000",
"$	c #FFFFFF",
"%	c #008000",
"                    ",
"                    ",
"        .+          ",
"       .@+          ",
"      .@@+          ",
"     .@@@+          ",
"    .@@@@+##########",
"   .@@@@@+$$$$$$$$$#",
"  .@@@@@@+$$$$$$$$$#",
"  +@@@@@@+$$$$$$$$$#",
"   %@@@@@+$#######$#",
"   #%@@@@+$$$$$$$$$#",
"   #$%@@@+######$$$#",
"   #$$%@@+$$$$$$$$$#",
"   #$$$%@+$$$$$$$$$#",
"   #$###%+########$#",
"   #$$$$$$$$$$$$$$$#",
"   #$$$##########$$#",
"   #$$$$$$$$$$$$$$$#",
"   #$$$$$$$$$$$$$$$#"};
