/* XPM */
static char * stock_insert_xpm[] = {
"20 20 9 1",
" 	c None",
".	c #A07A41",
"+	c #FFE1A0",
"@	c #C9A360",
"#	c #F4C675",
"$	c #E0B56B",
"%	c #F9888E",
"&	c #FF0905",
"*	c #9B4145",
"                    ",
"  ......            ",
" .++++++.........   ",
" .@@@@@@.+++++++#.  ",
" .......########@.  ",
" .+############$@.  ",
" .+############$@.  ",
" .+########%%%#$@.  ",
" .+########%&&*$@.  ",
" .+########%&&*$@.  ",
" .+########%&&*$@.  ",
" .+####%%%%%&&%%%%  ",
" .+####%&&&&&&&&&&* ",
" .+$$$$%&&&&&&&&&&* ",
" .@@@@@@****&&***** ",
"  .........%&&*...  ",
"           %&&*     ",
"           %&&*     ",
"            ***     ",
"                    "};
