/* XPM */
static char * stock_print_xpm[] = {
"20 20 12 1",
" 	c None",
".	c #878080",
"+	c #020000",
"@	c #D6CDCD",
"#	c #665F5F",
"$	c #000000",
"%	c #938F8F",
"&	c #706A6A",
"*	c #F70602",
"=	c #05B73A",
"-	c #685D5D",
";	c #FFFFFF",
"                    ",
"                    ",
"       .......+     ",
"       .@@@@@@+     ",
"       .@@@@@@+     ",
"       .@@@@@@+     ",
"     ...@@@@@@+#### ",
"    .@@.######+@@#$ ",
"   .@@@@@@@@@@@@#%$ ",
"  .&&&&&&&&&&&&&%%$ ",
"  .@@@@@@@@@@@@&%%$ ",
"  .@*@@@@@@@@=@&%%$ ",
"  .@@@@@@@@@@@@&%%$-",
"  .@@#########@&%%$-",
"  .@;;;;;;;;;@@&%$--",
"  .;;;;;;;;;@@@&$---",
"  ;;;;;;;;;$$$$$--- ",
" ;;;;;;;;;          ",
";;;;;;;;;           ",
"                    "};
