/* XPM */
static char * stock_help_xpm[] = {
"20 20 88 1",
" 	c None",
".	c #01BBBB",
"+	c #01DFDF",
"@	c #01E7E7",
"#	c #01E3E3",
"$	c #01E0E0",
"%	c #01DCDC",
"&	c #01C1C1",
"*	c #00DFDF",
"=	c #00DEDE",
"-	c #00B1B1",
";	c #009696",
">	c #008C8C",
",	c #008A8A",
"'	c #008E8E",
")	c #008B8B",
"!	c #006969",
"~	c #00CECE",
"{	c #008F8F",
"]	c #007D7D",
"^	c #007777",
"/	c #007676",
"(	c #007C7C",
"_	c #008080",
":	c #007A7A",
"<	c #006565",
"[	c #00CDCD",
"}	c #00D8D8",
"|	c #007272",
"1	c #006D6D",
"2	c #006767",
"3	c #006A6A",
"4	c #00B4B4",
"5	c #009999",
"6	c #007E7E",
"7	c #005454",
"8	c #00DCDC",
"9	c #00A3A3",
"0	c #007171",
"a	c #006868",
"b	c #014C4C",
"c	c #00C3C3",
"d	c #00B5B5",
"e	c #007F7F",
"f	c #006262",
"g	c #00C0C0",
"h	c #009494",
"i	c #006666",
"j	c #00BEBE",
"k	c #00BFBF",
"l	c #006464",
"m	c #024E4E",
"n	c #00D9D9",
"o	c #00ACAC",
"p	c #006363",
"q	c #00DBDB",
"r	c #00C6C6",
"s	c #008787",
"t	c #007979",
"u	c #005858",
"v	c #00E4E4",
"w	c #008585",
"x	c #007575",
"y	c #006C6C",
"z	c #005555",
"A	c #00E1E1",
"B	c #00B6B6",
"C	c #008383",
"D	c #007373",
"E	c #00CCCC",
"F	c #008484",
"G	c #009797",
"H	c #006E6E",
"I	c #00D7D7",
"J	c #008686",
"K	c #007A7B",
"L	c #00D0D0",
"M	c #008A8B",
"N	c #006060",
"O	c #005C5C",
"P	c #00CBCB",
"Q	c #00A4A4",
"R	c #007B7B",
"S	c #015151",
"T	c #007474",
"U	c #014E4E",
"V	c #005757",
"W	c #004E4E",
"                    ",
"       .+@#$%&      ",
"      *=-;>,')!     ",
"     =~{]^//(_:<    ",
"    [}>:|123456|7   ",
"    89(0ab  cde/f   ",
"    gh|i    jk_^l   ",
"      m     no6|p   ",
"           qrst1u   ",
"          vkwxyz    ",
"         ABCD<      ",
"        nEFxl       ",
"        vG(H        ",
"        IJKa        ",
"        LM/N        ",
"         HO         ",
"        kPy         ",
"        AQRS        ",
"        reTU        ",
"         VW         "};
