/* XPM */
static char * stock_open_xpm[] = {
"20 20 256 2",
"  	c None",
". 	c #020202",
"+ 	c #12A226",
"@ 	c #0B8A1E",
"# 	c #8E8512",
"$ 	c #1AA629",
"% 	c #064F12",
"& 	c #ADA21B",
"* 	c #032E0C",
"= 	c #129E26",
"- 	c #0F2A0C",
"; 	c #7DAAE4",
"> 	c #74DF58",
", 	c #3F8DC4",
"' 	c #BFB21B",
") 	c #216E21",
"! 	c #92B2D3",
"~ 	c #1B9727",
"{ 	c #408CBC",
"] 	c #C2C447",
"^ 	c #02230F",
"/ 	c #D0C670",
"( 	c #26628B",
"_ 	c #342F0A",
": 	c #408BB6",
"< 	c #CFC66A",
"[ 	c #0C851E",
"} 	c #78A7D5",
"| 	c #448AB2",
"1 	c #021C09",
"2 	c #525118",
"3 	c #86A7CE",
"4 	c #ECE466",
"5 	c #39842E",
"6 	c #928A0A",
"7 	c #2D7D2C",
"8 	c #1B445E",
"9 	c #05160A",
"0 	c #2D5B72",
"a 	c #35B838",
"b 	c #6E9A5E",
"c 	c #96DC4D",
"d 	c #908437",
"e 	c #82A7BE",
"f 	c #5E5E5E",
"g 	c #C4E660",
"h 	c #0D0E0A",
"i 	c #0A7C1B",
"j 	c #1D4146",
"k 	c #888342",
"l 	c #43C53F",
"m 	c #163F5A",
"n 	c #8499C4",
"o 	c #52984E",
"p 	c #316E26",
"q 	c #484510",
"r 	c #164056",
"s 	c #76A7A0",
"t 	c #96F556",
"u 	c #0A0A08",
"v 	c #FEEA24",
"w 	c #697896",
"x 	c #0A6E1B",
"y 	c #51963F",
"z 	c #BEB869",
"A 	c #D5CE83",
"B 	c #7485A1",
"C 	c #3A3A3A",
"D 	c #96F871",
"E 	c #8395BD",
"F 	c #525453",
"G 	c #716619",
"H 	c #A99E1A",
"I 	c #ABA853",
"J 	c #060606",
"K 	c #064111",
"L 	c #4E993A",
"M 	c #91B4E9",
"N 	c #6AA2DA",
"O 	c #292A2A",
"P 	c #EBD91F",
"Q 	c #B5AA4A",
"R 	c #60738D",
"S 	c #6B84A1",
"T 	c #4ECD46",
"U 	c #BEB85C",
"V 	c #928526",
"W 	c #F9EA56",
"X 	c #A59A17",
"Y 	c #16535A",
"Z 	c #54A74D",
"` 	c #0E9020",
" .	c #0B661D",
"..	c #696016",
"+.	c #659DD0",
"@.	c #F7E54A",
"#.	c #164752",
"$.	c #7795BC",
"%.	c #837915",
"&.	c #A49C5C",
"*.	c #423E13",
"=.	c #E3D772",
"-.	c #CECA59",
";.	c #F5E76A",
">.	c #8D8323",
",.	c #528E36",
"'.	c #46835C",
").	c #56D449",
"!.	c #2C6C99",
"~.	c #9CB0E2",
"{.	c #0B621B",
"].	c #16394D",
"^.	c #333332",
"/.	c #B2A619",
"(.	c #FAE622",
"_.	c #507977",
":.	c #E2D67A",
"<.	c #BCB64B",
"[.	c #0E9622",
"}.	c #16524E",
"|.	c #668396",
"1.	c #548DB6",
"2.	c #224E46",
"3.	c #F8EA4E",
"4.	c #585535",
"5.	c #E9E260",
"6.	c #5F4F08",
"7.	c #6BA2D0",
"8.	c #21220D",
"9.	c #D9D85A",
"0.	c #72984D",
"a.	c #C2FA7B",
"b.	c #CCC952",
"c.	c #4E8BB2",
"d.	c #4F460D",
"e.	c #746F43",
"f.	c #6C93BC",
"g.	c #96F66A",
"h.	c #A19614",
"i.	c #C2F972",
"j.	c #B7F866",
"k.	c #96FA85",
"l.	c #9E985B",
"m.	c #1D262C",
"n.	c #3E3A0E",
"o.	c #665A10",
"p.	c #928A16",
"q.	c #2A2A0E",
"r.	c #085E16",
"s.	c #597492",
"t.	c #163E4E",
"u.	c #A0BAEF",
"v.	c #1E1E1E",
"w.	c #3B6079",
"x.	c #FAEA4A",
"y.	c #ADB83E",
"z.	c #B6AA19",
"A.	c #5998CB",
"B.	c #92A962",
"C.	c #123242",
"D.	c #FAF04E",
"E.	c #26705A",
"F.	c #BEB63A",
"G.	c #797837",
"H.	c #9D983F",
"I.	c #6CE556",
"J.	c #E4D420",
"K.	c #3E8BAA",
"L.	c #EEDE22",
"M.	c #5B91BD",
"N.	c #868626",
"O.	c #16564A",
"P.	c #D1C21D",
"Q.	c #F5F261",
"R.	c #C2F86A",
"S.	c #2F7EAF",
"T.	c #766D16",
"U.	c #CDBE1B",
"V.	c #06490F",
"W.	c #ACA646",
"X.	c #E6DC7F",
"Y.	c #D3D756",
"Z.	c #41933B",
"`.	c #5E8496",
" +	c #68D953",
".+	c #568EB2",
"++	c #77EB5C",
"@+	c #EFE273",
"#+	c #6BA2BB",
"$+	c #1C1B0A",
"%+	c #5195CC",
"&+	c #23231E",
"*+	c #362A06",
"=+	c #649495",
"-+	c #527293",
";+	c #FAEA5F",
">+	c #989351",
",+	c #A0953A",
"'+	c #EEE27A",
")+	c #39360D",
"!+	c #124146",
"~+	c #F8EA72",
"{+	c #075A18",
"]+	c #F6E229",
"^+	c #DACB1F",
"/+	c #656039",
"(+	c #3EBC3D",
"_+	c #0E9E25",
":+	c #726E36",
"<+	c #484949",
"[+	c #828422",
"}+	c #20536E",
"|+	c #AAA442",
"1+	c #27B031",
"2+	c #3F8BA6",
"3+	c #9E9216",
"4+	c #3286BE",
"5+	c #FEF295",
"6+	c #40452C",
"7+	c #897D2A",
"8+	c #7490B6",
"9+	c #FAEA46",
"0+	c #F5EF66",
"a+	c #236079",
"b+	c #BDAE1A",
"c+	c #F6EE6A",
"d+	c #FAF66A",
"e+	c #60560E",
"f+	c #B2A846",
"g+	c #D4D852",
"h+	c #A9BDF5",
"i+	c #96F67E",
"j+	c #62C84D",
"k+	c #04380F",
"l+	c #F8E636",
"m+	c #516773",
"n+	c #8FA9D7",
"o+	c #161616",
"p+	c #12120C",
"q+	c #7E7949",
"r+	c #E9FA6F",
"s+	c #2E77A3",
"t+	c #C6B81B",
"u+	c #065613",
"v+	c #7891B1",
"w+	c #5192BD",
"x+	c #B2AB62",
"y+	c #4C84A7",
"z+	c #5DB848",
"A+	c #0E0A02",
"B+	c #17160A",
"C+	c #272408",
"D+	c #1A1A1A",
"E+	c #313023",
"F+	c #594906",
"G+	c #988F2F",
"                                        ",
"                                        ",
"                      K $ 1+1+a a a l V.",
"                        K [._++ + _++ K ",
"                          Z._+_+_++ + K ",
"                         +$ _++ + _+_+K ",
"                      j+$ _++ _+_++ + V.",
"      *+*+_         > $ _++ + _+{+i _+V.",
"  p+*+*+*+_ *+8.8. ++ + + _+_+%     i V.",
"  _ _ _ *+_ *+_ j++ _++ + _+{+        V.",
"  _ *+*+*+U ]+]+]+]+]+]+]+]+]+^+..      ",
"  *+*+*+*+l+L.L.L.P P L.L.L.P z.C+      ",
"  *+*+*+/ L.(.L.L.L.L.L.P L.t+G         ",
"  *+_ q l+L.P L.L.P L.L.L.P z.8.        ",
"  *+*+:.P L.L.(.L.P L.L.L.t+%.          ",
"  *+4.]+L.P (.L.L.P P P J.z.)+          ",
"  _ @+L.L.L.L.L.L.L.]+P ' %.            ",
"  4.U.' ' ' ' ' ' ' ' b+/.)+            ",
"  q._ _ _ q.q.q._ _ _ q.q.              ",
"                                        "};
