/* XPM */
static char * stock_stepleft_xpm[] = {
"20 20 6 1",
" 	c None",
".	c #436470",
"+	c #BEEDFF",
"@	c #75AFC4",
"#	c #8ED3ED",
"$	c #5B8999",
"                    ",
"        .   .       ",
"       +.  +.       ",
"      +@. +#.       ",
"     +@@.+##.       ",
"    +@@@+###.       ",
"   +@@@+####++++++# ",
"  +@@@+###########. ",
" +@@@+############. ",
" .@@@$############. ",
"  .@@@$###########. ",
"   .@@@$##########. ",
"    .@@@$###....... ",
"     .@@.$##.       ",
"      .@. $#.       ",
"       ..  $.       ",
"        .   .       ",
"                    ",
"                    ",
"                    "};
