/* XPM */
static char * stock_edit_xpm[] = {
"18 18 14 1",
" 	c None",
".	c #A07A41",
"+	c #FFE1A0",
"@	c #F4C675",
"#	c #E0B56B",
"$	c #000000",
"%	c #C9A360",
"&	c #00FFFF",
"*	c #808080",
"=	c #FFF9E1",
"-	c #C0C0C0",
";	c #FFFFFF",
">	c #800000",
",	c #000080",
"             .+@@@",
"            .+@@@@",
"           .+@@@@#",
"$$$$$$$$$$$$$@@@#%",
"$&&&&&&&&*$==$@#%.",
"$$$$$$$$$$===+$%.$",
"$---$;;;*$==++$.$ ",
"$->-$;,,$==++$$-$ ",
"$---$;;*$$+$$*--$ ",
"$->-$;,$$$$*-,,-$ ",
"$---$;;$$*-$----$ ",
"$->-$;,,,,;$;,,;$ ",
"$---$;;;;;;$;;;;$ ",
"$->-$;,,,,;$;,,;$ ",
"$---$;;;;;;$;;;;$ ",
"$->-$;,,,,;$;,,;$ ",
"$---$;;;;;;$;;;;$ ",
"$$$$$$$$$$$$$$$$$ "};
